<svg width="16" height="16" viewBox="0 0 16 16" fill="none" xmlns="http://www.w3.org/2000/svg">
<path d="M0 8C0 3.58172 3.58172 0 8 0C12.4183 0 16 3.58172 16 8C16 12.4183 12.4183 16 8 16C3.58172 16 0 12.4183 0 8ZM1.67164 8C1.67164 11.4951 4.50494 14.3284 8 14.3284C11.4951 14.3284 14.3284 11.4951 14.3284 8C14.3284 4.50494 11.4951 1.67164 8 1.67164C4.50494 1.67164 1.67164 4.50494 1.67164 8ZM8 8.43781L9.75725 6.65277C10.0837 6.32636 10.6129 6.32636 10.9393 6.65277C11.2657 6.97918 11.2657 7.50839 10.9393 7.8348L8.55121 10.2229C8.22481 10.5493 7.69559 10.5493 7.36918 10.2229L4.98112 7.8348C4.65472 7.50839 4.65472 6.97918 4.98112 6.65277C5.30753 6.32636 5.83675 6.32636 6.16315 6.65277L8 8.43781Z" fill="#B3B3BF"/>
</svg>
