<svg width="24" height="24" viewBox="0 0 24 24" fill="none" xmlns="http://www.w3.org/2000/svg">
<path d="M22.32 9.75003C21.7603 7.21018 20.2829 4.96622 18.1711 3.4482C16.0593 1.93018 13.4615 1.24487 10.8757 1.52362C8.28988 1.80236 5.89787 3.02555 4.15808 4.95877C2.4183 6.89198 1.45312 9.39924 1.44751 12C1.45022 13.8452 1.94191 15.6567 2.87251 17.25C2.94001 17.37 3.01501 17.4825 3.09001 17.6025C3.15001 17.7075 3.22501 17.8125 3.30001 17.9175L3.36751 18.015C4.33422 19.4074 5.62365 20.545 7.12562 21.3307C8.6276 22.1164 10.2975 22.5268 11.9925 22.5268C13.6876 22.5268 15.3574 22.1164 16.8594 21.3307C18.3614 20.545 19.6508 19.4074 20.6175 18.015L20.685 17.9175C20.76 17.8125 20.835 17.7075 20.895 17.6025L21.12 17.25C22.4295 14.983 22.8568 12.3125 22.32 9.75003ZM12 21C10.5646 21.0064 9.14854 20.6693 7.86994 20.017C6.59134 19.3646 5.48731 18.4159 4.65001 17.25C5.4894 16.0854 6.59354 15.1369 7.87143 14.4827C9.14933 13.8285 10.5644 13.4873 12 13.4873C13.4356 13.4873 14.8507 13.8285 16.1286 14.4827C17.4065 15.1369 18.5106 16.0854 19.35 17.25C18.5127 18.4159 17.4087 19.3646 16.1301 20.017C14.8515 20.6693 13.4354 21.0064 12 21ZM20.175 15.8475C19.1908 14.6279 17.9461 13.6441 16.5322 12.9682C15.1182 12.2923 13.5709 11.9415 12.0038 11.9415C10.4366 11.9415 8.88928 12.2923 7.47534 12.9682C6.0614 13.6441 4.8167 14.6279 3.83251 15.8475C2.97272 14.0452 2.73674 12.0082 3.16173 10.057C3.58672 8.10588 4.64853 6.35149 6.18001 5.07003C7.20277 4.21581 8.40016 3.5959 9.68808 3.25384C10.976 2.91177 12.3232 2.85586 13.635 3.09003C14.9971 3.33999 16.2835 3.89961 17.3949 4.72568C18.5063 5.55176 19.4131 6.6222 20.0451 7.85436C20.6771 9.08652 21.0175 10.4474 21.0401 11.8321C21.0626 13.2167 20.7666 14.588 20.175 15.84V15.8475Z" fill="#A4ABAE"/>
<path d="M12 3.75C11.2583 3.75 10.5333 3.96993 9.91661 4.38199C9.29993 4.79404 8.81928 5.37971 8.53545 6.06494C8.25162 6.75016 8.17736 7.50416 8.32206 8.23159C8.46675 8.95902 8.8239 9.6272 9.34835 10.1517C9.8728 10.6761 10.541 11.0333 11.2684 11.1779C11.9958 11.3226 12.7498 11.2484 13.4351 10.9645C14.1203 10.6807 14.706 10.2001 15.118 9.58339C15.5301 8.9667 15.75 8.24168 15.75 7.5C15.75 6.50544 15.3549 5.55161 14.6517 4.84835C13.9484 4.14509 12.9946 3.75 12 3.75ZM12 9.75C11.555 9.75 11.12 9.61804 10.75 9.37081C10.38 9.12357 10.0916 8.77217 9.92127 8.36104C9.75098 7.9499 9.70642 7.4975 9.79323 7.06105C9.88005 6.62459 10.0943 6.22368 10.409 5.90901C10.7237 5.59434 11.1246 5.38005 11.561 5.29323C11.9975 5.20642 12.4499 5.25097 12.861 5.42127C13.2722 5.59157 13.6236 5.87996 13.8708 6.24997C14.118 6.61998 14.25 7.05499 14.25 7.5C14.25 8.09674 14.0129 8.66903 13.591 9.09099C13.169 9.51295 12.5967 9.75 12 9.75Z" fill="#A4ABAE"/>
</svg>
