<svg width="18" height="15" viewBox="0 0 18 15" fill="none" xmlns="http://www.w3.org/2000/svg">
<path d="M11.7418 6.075L9.42511 8.39166C9.28639 8.35478 9.14364 8.33519 9.00011 8.33333C8.55808 8.33333 8.13416 8.50893 7.8216 8.82149C7.50904 9.13405 7.33344 9.55797 7.33344 10C7.3353 10.1435 7.35489 10.2863 7.39177 10.425L6.74177 11.075C6.66367 11.1525 6.60167 11.2446 6.55936 11.3462C6.51706 11.4477 6.49527 11.5567 6.49527 11.6667C6.49527 11.7767 6.51706 11.8856 6.55936 11.9871C6.60167 12.0887 6.66367 12.1809 6.74177 12.2583C6.81924 12.3364 6.91141 12.3984 7.01296 12.4407C7.11451 12.483 7.22343 12.5048 7.33344 12.5048C7.44345 12.5048 7.55237 12.483 7.65392 12.4407C7.75547 12.3984 7.84764 12.3364 7.92511 12.2583L8.57511 11.6083C8.71383 11.6452 8.85658 11.6648 9.00011 11.6667C9.44213 11.6667 9.86606 11.4911 10.1786 11.1785C10.4912 10.8659 10.6668 10.442 10.6668 10C10.6649 9.85647 10.6453 9.71372 10.6084 9.575L12.9251 7.25833C13.082 7.10141 13.1702 6.88858 13.1702 6.66667C13.1702 6.44475 13.082 6.23192 12.9251 6.075C12.7682 5.91808 12.5554 5.82992 12.3334 5.82992C12.1115 5.82992 11.8987 5.91808 11.7418 6.075ZM9.00011 0.833332C7.90576 0.833332 6.82212 1.04888 5.81108 1.46767C4.80003 1.88646 3.88137 2.50029 3.10755 3.27411C1.54475 4.83691 0.666774 6.95653 0.666774 9.16667C0.66267 10.8171 1.15321 12.431 2.07511 13.8C2.19887 13.9834 2.39044 14.1102 2.60767 14.1524C2.8249 14.1946 3.05 14.1488 3.23344 14.025C3.41688 13.9012 3.54364 13.7097 3.58584 13.4924C3.62803 13.2752 3.58221 13.0501 3.45844 12.8667C2.7872 11.8629 2.40117 10.6958 2.34157 9.48976C2.28196 8.28376 2.55102 7.0842 3.12001 6.01919C3.689 4.95418 4.53656 4.06369 5.57219 3.44282C6.60782 2.82195 7.79263 2.49401 9.00011 2.49401C10.2076 2.49401 11.3924 2.82195 12.428 3.44282C13.4637 4.06369 14.3112 4.95418 14.8802 6.01919C15.4492 7.0842 15.7183 8.28376 15.6586 9.48976C15.599 10.6958 15.213 11.8629 14.5418 12.8667C14.4804 12.9575 14.4374 13.0595 14.4155 13.1669C14.3936 13.2742 14.3931 13.3849 14.4139 13.4925C14.4349 13.6001 14.4768 13.7025 14.5373 13.7939C14.5979 13.8853 14.6758 13.9638 14.7668 14.025C14.9047 14.1177 15.0672 14.167 15.2334 14.1667C15.3699 14.1669 15.5044 14.1335 15.625 14.0696C15.7456 14.0057 15.8487 13.9131 15.9251 13.8C16.847 12.431 17.3375 10.8171 17.3334 9.16667C17.3334 6.95653 16.4555 4.83691 14.8927 3.27411C13.3299 1.71131 11.2102 0.833332 9.00011 0.833332Z" fill="#196FFF"/>
</svg>
