<svg width="16" height="16" viewBox="0 0 16 16" fill="none" xmlns="http://www.w3.org/2000/svg">
<path d="M9.90002 15.44C9.69488 15.4388 9.49383 15.3824 9.31791 15.2769C9.142 15.1713 8.99767 15.0204 8.90002 14.84L6.15002 9.91001L6.08502 9.84501L1.20002 7.13001C1.01578 7.03315 0.859895 6.89003 0.747688 6.7147C0.63548 6.53938 0.570809 6.33788 0.560025 6.13001C0.553043 5.88113 0.62667 5.63666 0.769931 5.43303C0.913193 5.2294 1.11842 5.07751 1.35502 5.00001L3.02502 4.43501C3.08739 4.41383 3.15333 4.40518 3.21905 4.40956C3.28478 4.41394 3.34898 4.43127 3.40799 4.46054C3.467 4.48981 3.51964 4.53045 3.56289 4.58013C3.60614 4.6298 3.63915 4.68754 3.66002 4.75001C3.6812 4.81238 3.68985 4.87832 3.68547 4.94404C3.68109 5.00976 3.66376 5.07397 3.63449 5.13297C3.60522 5.19198 3.56458 5.24462 3.51491 5.28787C3.46523 5.33112 3.4075 5.36414 3.34502 5.38501L1.67502 5.94001C1.64446 5.94893 1.61725 5.96678 1.59688 5.99125C1.57652 6.01573 1.56391 6.04573 1.56069 6.07741C1.55747 6.10909 1.56378 6.14101 1.5788 6.16908C1.59382 6.19716 1.61688 6.22011 1.64502 6.23501L6.57502 8.97501C6.7642 9.07991 6.92012 9.23583 7.02502 9.42501L9.76503 14.355C9.77912 14.3833 9.80152 14.4066 9.82922 14.4218C9.85692 14.437 9.88861 14.4433 9.92002 14.44C9.95184 14.4383 9.98234 14.4268 10.0074 14.4071C10.0324 14.3874 10.0508 14.3605 10.06 14.33L14.155 2.05001C14.1651 2.0216 14.1667 1.99085 14.1596 1.96154C14.1525 1.93224 14.137 1.90564 14.115 1.88501C14.094 1.86353 14.0674 1.84839 14.0383 1.84132C14.0091 1.83424 13.9785 1.83552 13.95 1.84501L6.45002 4.34501C6.38766 4.36619 6.32172 4.37483 6.25599 4.37045C6.19027 4.36607 6.12607 4.34875 6.06706 4.31948C6.00805 4.29021 5.95541 4.24957 5.91216 4.19989C5.86891 4.15021 5.8359 4.09248 5.81502 4.03001C5.79385 3.96764 5.7852 3.9017 5.78958 3.83598C5.79396 3.77026 5.81129 3.70605 5.84056 3.64704C5.86983 3.58804 5.91047 3.5354 5.96014 3.49214C6.00982 3.44889 6.06755 3.41588 6.13002 3.39501L13.63 0.895008C13.8354 0.825319 14.0561 0.814577 14.2672 0.863999C14.4784 0.913422 14.6714 1.02103 14.8245 1.17462C14.9775 1.3282 15.0845 1.52161 15.1332 1.73291C15.1819 1.9442 15.1704 2.16492 15.1 2.37001L11 14.645C10.9298 14.8606 10.7974 15.0506 10.6195 15.1912C10.4415 15.3318 10.226 15.4166 10 15.435L9.90002 15.44Z" fill="#4B97FF"/>
<path d="M14.1118 1.17958L6.125 9.16635L6.83211 9.87346L14.8189 1.88669L14.1118 1.17958Z" fill="#4B97FF"/>
</svg>
