<svg xmlns="http://www.w3.org/2000/svg" width="41.292" height="41.146" viewBox="0 0 41.292 41.146">
  <g id="email_us" data-name="email us" transform="translate(-261.354 -491.306)">
    <path id="Path_225089" data-name="Path 225089" d="M3410.752,1146.394l-.907-8.16,7.124-4.145,7.383,1.036,5.7,6.865-1.554,4.4-6.217,3.886h-5.311l-3.367,2.849,1.036-4.145Z" transform="translate(-3128 -642)" fill="#ffa89d"/>
    <g id="email_4_" data-name="email (4)" transform="translate(257.346 487.185)">
      <path id="Path_225087" data-name="Path 225087" d="M5.8,22.84a12.248,12.248,0,0,0-1.634,2.167c-.329,6.79-.065,13.421.065,20.067,12.482.394,14.835-.221,31.68.194a11.3,11.3,0,0,0,1.8-1.526c.243-.116.284-.318.272-.583-.3-6.429.567-12.695.191-19.272-.013-.234-.335-.5-.469-.587q-1.249-.821-2.427-1.742c3.442.113,7.691-1.16,9.327-4.672,1.886-4.051.092-10.163-7.134-12.2a12.635,12.635,0,0,0-8.912.51,9.266,9.266,0,0,0-4.867,5.835q-.906-.791-1.844-1.542c-.007-.005-.015-.006-.023-.012s-.013-.021-.023-.03a.483.483,0,0,0-.683.046C16.321,14.977,6.534,21.553,5.8,22.84Zm16.089,6.352C26.265,33.53,31.945,38.408,36.4,42.777c-1.891-.089-25.511-.583-28.434-.285C12.458,37.943,17.688,33.062,21.889,29.192ZM37.231,24.71c.243,5.669-.327,10.713-.281,16.185-.364-.8-8.278-6.892-8.968-7.422C31.006,30.483,34.145,27.74,37.231,24.71ZM6.708,42.391c.044-6.359.472-12,.061-18.074,3.094,3.1,6.02,6.046,9.367,8.9-3.158,2.966-6.474,6.157-9.429,9.174ZM28.979,6.068a11.693,11.693,0,0,1,8.227-.449C42.493,7.107,45.9,11.434,43.132,16.3c-2.225,3.345-6.328,3.864-10.268,3.2a.484.484,0,0,0-.515.265,6.194,6.194,0,0,1-4.067,3.22,5.1,5.1,0,0,0,1.047-3.9.484.484,0,0,0-.411-.4c-2.56-.353-4.625-3.105-4.51-6.01a8.031,8.031,0,0,1,4.569-6.612Zm-7.455,4.411q1,.805,1.958,1.656a6.9,6.9,0,0,0,4.934,7.449A5.011,5.011,0,0,1,26.784,23.3a.484.484,0,0,0,.357.811h.017a22.635,22.635,0,0,0,3.3-.01,15.442,15.442,0,0,0,3.2-2.6,38.466,38.466,0,0,0,3.09,2.325c-3.134,3.1-6.429,5.966-9.545,9.054-.579-.44-3.84-3.576-4.943-4.68a.545.545,0,0,0-.73.006c-1.452,1.336-3.043,2.81-4.685,4.346-3.5-2.978-6.59-6.11-9.9-9.429,4.7-4.256,10.324-7.913,14.58-12.644Z" transform="translate(0 0)"/>
      <path id="Path_225088" data-name="Path 225088" d="M42.361,14.705H52.723a.484.484,0,0,0,0-.968H42.361a.484.484,0,1,0,0,.968Zm10.252,2.259h-5.75a.484.484,0,0,0,0,.968h5.75a.484.484,0,0,0,0-.968Z" transform="translate(-13.43 -3.41)"/>
    </g>
  </g>
</svg>
